<!-- icon666.com - MILLIONS vector ICONS FREE --><svg clip-rule="evenodd" fill-rule="evenodd" image-rendering="optimizeQuality" shape-rendering="geometricPrecision" text-rendering="geometricPrecision" viewBox="0 0 2667 2667" xmlns="http://www.w3.org/2000/svg"><g id="Layer_x0020_1"><circle cx="1333" cy="1333" fill="#7ed63f" r="1333" style="fill: rgb(0, 0, 0);"></circle><path d="m1907 1118c-15 0-26-14-22-29l37-132c8-28 52-16 44 13l-37 131c-3 10-12 17-22 17zm-1152 307c35-128 147-226 309-271l61-105c-51-36-88-93-97-159h-12c-124 0-123-208 0-208h12c16-114 114-202 233-202 118 0 216 88 232 202h12c124 0 124 208 0 208h-12c-9 66-45 123-97 159l61 105c163 45 275 143 310 270 72 47 119 118 119 199v518h119c30 0 30 46 0 46h-1489c-30 0-30-46 0-46h120v-518c0-81 46-152 119-198zm353-255c86 81 219 81 306 0l-57-98c-61 27-131 27-192 0zm631 290c-3-1-5-2-7-3-44-26-98-41-157-41h-629c-123 0-265 76-265 207v518h1159v-518c0-66-40-125-101-163zm-31-65c-42-90-133-160-259-196-45 44-104 71-166 76v96h292c48 0 92 8 133 24zm-470-120c-62-5-121-32-166-76-70 20-203 74-258 196 40-16 85-24 132-24h292zm-212-430v-118c-18 0-32 1-44 17-25 31-16 101 34 101zm470-118v118c17 0 31 0 44-17 24-31 15-101-35-101zm-235-202c-90 0-166 63-185 147 65-32 202-77 370 3-18-85-94-150-185-150zm-190 202 1 140c3 135 158 227 282 155 59-34 96-94 96-165v-129c-193-105-342-25-379-1zm190 1218c-92 0-167-74-167-166s75-167 167-167 166 75 166 167-74 166-166 166zm0-288c-67 0-122 55-122 122s55 121 122 121 121-54 121-121-54-122-121-122zm889-445h-449c-13 0-23-10-23-23v-321c0-13 10-23 23-23h449c13 0 23 10 23 23v321c0 13-10 23-23 23zm-427-45h405v-276h-405zm279-51c-20 0-31-25-16-40l52-49-52-48c-21-21 10-54 32-33l68 65c10 9 10 24 0 33l-68 65c-5 5-10 7-16 7zm-153 0c-6 0-11-2-16-7l-69-65c-9-9-9-24 0-33l69-65c22-21 53 12 32 33l-52 49 52 48c14 15 4 40-16 40z" fill="#fff" style="fill: rgb(255, 255, 255);"></path></g></svg>